<?xml version="1.0" encoding="UTF-8" standalone="no"?>
<!-- Created with Inkscape (http://www.inkscape.org/) -->

<svg
   xmlns:dc="http://purl.org/dc/elements/1.1/"
   xmlns:cc="http://creativecommons.org/ns#"
   xmlns:rdf="http://www.w3.org/1999/02/22-rdf-syntax-ns#"
   xmlns:svg="http://www.w3.org/2000/svg"
   xmlns="http://www.w3.org/2000/svg"
   version="1.1"
   width="60.033001"
   height="13.999999"
   id="svg2">
  <defs
     id="defs4" />
  <metadata
     id="metadata7">
    <rdf:RDF>
      <cc:Work
         rdf:about="">
        <dc:format>image/svg+xml</dc:format>
        <dc:type
           rdf:resource="http://purl.org/dc/dcmitype/StillImage" />
        <dc:title></dc:title>
      </cc:Work>
    </rdf:RDF>
  </metadata>
  <g
     transform="translate(95.964485,-63.620176)"
     id="layer1">
    <path
       d="m -79.928322,72.766747 a 6.6922607,6.6922607 0 1 1 -13.384521,0 6.6922607,6.6922607 0 1 1 13.384521,0 z"
       transform="matrix(1.0459843,0,0,1.0459843,1.6392845,-5.4926984)"
       id="path2996"
       style="fill:#ffffff;fill-opacity:1;stroke:none" />
    <path
       d="m -79.928322,72.766747 a 6.6922607,6.6922607 0 1 1 -13.384521,0 6.6922607,6.6922607 0 1 1 13.384521,0 z"
       transform="matrix(1.0459843,0,0,1.0459843,24.655787,-5.4926984)"
       id="path2996-1"
       style="fill:#ffffff;fill-opacity:1;stroke:none" />
    <path
       d="m -79.928322,72.766747 a 6.6922607,6.6922607 0 1 1 -13.384521,0 6.6922607,6.6922607 0 1 1 13.384521,0 z"
       transform="matrix(1.0459843,0,0,1.0459843,47.672287,-5.4926984)"
       id="path2996-1-7"
       style="fill:#ffffff;fill-opacity:1;stroke:none" />
  </g>
</svg>
